<svg width="224" height="28" viewBox="0 0 224 28" fill="none" xmlns="http://www.w3.org/2000/svg">
<path d="M22.9492 27H18.5898L11.875 7.59375L5.08984 27H0.695312L9.76562 1.125H13.9492L22.9492 27ZM14.1953 18.7734L15.2148 21.6211H8.5L9.48438 18.7734H14.1953ZM42.8477 1.08984H47.1367V27H42.8477L34.1289 11.6719V3.58594L42.8477 18.9492V1.08984ZM28.3984 27V1.08984H32.6875V27H28.3984ZM68.1953 6.08203C67.6328 5.40234 66.9883 4.91016 66.2617 4.60547C65.5352 4.30078 64.7852 4.14844 64.0117 4.14844H63.8711V0.667969H63.9062C65.3125 0.667969 66.625 0.902344 67.8438 1.37109C69.0625 1.83984 70.1523 2.54297 71.1133 3.48047L68.1953 6.08203ZM53.1133 13.9219C53.1133 11.9062 53.3477 10.125 53.8164 8.57812C54.2852 7.00781 54.9297 5.68359 55.75 4.60547C56.5703 3.50391 57.5547 2.63672 58.7031 2.00391C59.8516 1.37109 61.0938 0.972656 62.4297 0.808594V4.32422C61.7266 4.51172 61.0703 4.82813 60.4609 5.27344C59.875 5.71875 59.3477 6.33984 58.8789 7.13672C58.4336 7.91016 58.082 8.85938 57.8242 9.98438C57.5664 11.0859 57.4258 12.3984 57.4023 13.9219C57.4258 15.4453 57.5664 16.7812 57.8242 17.9297C58.082 19.0781 58.4336 20.0742 58.8789 20.918C59.3477 21.7383 59.875 22.3945 60.4609 22.8867C61.0703 23.3789 61.7266 23.7188 62.4297 23.9062V27.1055C61.0938 26.9414 59.8516 26.543 58.7031 25.9102C57.5547 25.2539 56.5703 24.375 55.75 23.2734C54.9297 22.1719 54.2852 20.8477 53.8164 19.3008C53.3477 17.7305 53.1133 15.9375 53.1133 13.9219ZM72.4492 13.6406V23.6602C71.9102 24.3398 71.3008 24.9023 70.6211 25.3477C69.9648 25.7695 69.2617 26.1211 68.5117 26.4023C67.7852 26.6836 67.0234 26.8828 66.2266 27C65.4531 27.1172 64.6797 27.1758 63.9062 27.1758H63.8711V24.082C64.1523 24.082 64.4922 24.0703 64.8906 24.0469C65.3125 24 65.7344 23.9414 66.1562 23.8711C66.6016 23.7773 67.0117 23.6602 67.3867 23.5195C67.7852 23.3789 68.0781 23.1797 68.2656 22.9219V16.5234H63.8711V13.6406H72.4492ZM78.6367 1.08984H82.9258V27H78.6367V1.08984ZM93.7539 15.3281H84.3672V12.4453H93.7539V15.3281ZM84.3672 23.8008H94.8438V27H84.3672V23.8008ZM94.8438 1.08984V4.28906H84.3672V1.08984H94.8438ZM104.934 1.08984V23.8008H116.852V27H100.645V1.08984H104.934ZM120.613 13.9219C120.613 11.8359 120.859 9.99609 121.352 8.40234C121.867 6.78516 122.57 5.42578 123.461 4.32422C124.375 3.19922 125.441 2.34375 126.66 1.75781C127.902 1.14844 129.25 0.796875 130.703 0.703125V4.21875C129.906 4.3125 129.156 4.55859 128.453 4.95703C127.75 5.35547 127.141 5.94141 126.625 6.71484C126.109 7.48828 125.699 8.47266 125.395 9.66797C125.09 10.8633 124.926 12.2812 124.902 13.9219C124.926 15.5859 125.09 17.0156 125.395 18.2109C125.699 19.3828 126.109 20.3672 126.625 21.1641C127.164 21.9609 127.785 22.5703 128.488 22.9922C129.191 23.3906 129.93 23.625 130.703 23.6953V27.1758C129.273 27.082 127.938 26.7422 126.695 26.1562C125.453 25.5469 124.375 24.6914 123.461 23.5898C122.57 22.4648 121.867 21.0938 121.352 19.4766C120.859 17.8594 120.613 16.0078 120.613 13.9219ZM132.109 0.703125C133.539 0.773438 134.863 1.11328 136.082 1.72266C137.324 2.33203 138.391 3.19922 139.281 4.32422C140.195 5.42578 140.91 6.78516 141.426 8.40234C141.941 9.99609 142.199 11.8359 142.199 13.9219C142.199 16.0078 141.941 17.8594 141.426 19.4766C140.91 21.0938 140.195 22.4648 139.281 23.5898C138.391 24.6914 137.336 25.5469 136.117 26.1562C134.898 26.7422 133.562 27.082 132.109 27.1758V23.6953C132.906 23.6016 133.656 23.3555 134.359 22.957C135.062 22.5352 135.672 21.9375 136.188 21.1641C136.703 20.3672 137.113 19.3828 137.418 18.2109C137.723 17.0156 137.887 15.5859 137.91 13.9219C137.887 12.2578 137.723 10.8398 137.418 9.66797C137.113 8.47266 136.691 7.48828 136.152 6.71484C135.637 5.91797 135.027 5.32031 134.324 4.92188C133.621 4.5 132.883 4.25391 132.109 4.18359V0.703125ZM170.922 1.08984H175.738L168.039 16.4531V27H163.75V18.3516L170.922 1.08984ZM161.254 1.08984L165.156 11.1797L163.258 15.7852L156.438 1.08984H161.254ZM202.035 27H197.676L190.961 7.59375L184.176 27H179.781L188.852 1.125H193.035L202.035 27ZM193.281 18.7734L194.301 21.6211H187.586L188.57 18.7734H193.281ZM207.449 1.08984H211.668V27H207.449V1.08984ZM214.902 1.08984C216.004 1.08984 217.094 1.26562 218.172 1.61719C219.25 1.96875 220.211 2.49609 221.055 3.19922C221.922 3.90234 222.613 4.75781 223.129 5.76562C223.668 6.75 223.938 7.86328 223.938 9.10547C223.938 10.418 223.715 11.6133 223.27 12.6914C222.824 13.7461 222.203 14.6367 221.406 15.3633C220.609 16.0898 219.648 16.6523 218.523 17.0508C217.398 17.4492 216.156 17.6484 214.797 17.6484H213.109V14.5547H215.535C216.051 14.5547 216.555 14.4727 217.047 14.3086C217.562 14.1211 218.031 13.8281 218.453 13.4297C218.875 13.0312 219.215 12.4805 219.473 11.7773C219.73 11.0508 219.859 10.1602 219.859 9.10547C219.859 8.68359 219.801 8.20312 219.684 7.66406C219.566 7.10156 219.32 6.57422 218.945 6.08203C218.594 5.56641 218.09 5.14453 217.434 4.81641C216.777 4.46484 215.91 4.28906 214.832 4.28906H213.109V1.08984H214.902Z" fill="white"/>
</svg>
